<svg width="16" height="14" viewBox="0 0 16 14" fill="none" xmlns="http://www.w3.org/2000/svg">
<path d="M14.4867 11.5964V12.3624C14.4867 13.205 13.7973 13.8943 12.9548 13.8943H2.23084C1.38059 13.8943 0.698853 13.205 0.698853 12.3624V1.63843C0.698853 0.79584 1.38059 0.106445 2.23084 0.106445H12.9548C13.7973 0.106445 14.4867 0.79584 14.4867 1.63843V2.40443H7.5928C6.74255 2.40443 6.06081 3.09382 6.06081 3.93642V10.0644C6.06081 10.907 6.74255 11.5964 7.5928 11.5964H14.4867ZM7.5928 10.0644H15.2527V3.93642H7.5928V10.0644ZM10.6568 8.14939C10.021 8.14939 9.50778 7.63617 9.50778 7.0004C9.50778 6.36462 10.021 5.8514 10.6568 5.8514C11.2926 5.8514 11.8058 6.36462 11.8058 7.0004C11.8058 7.63617 11.2926 8.14939 10.6568 8.14939Z" fill="black"/>
</svg>
