<svg width="20" height="19" viewBox="0 0 20 19" fill="none" xmlns="http://www.w3.org/2000/svg">
<path d="M18.5016 8.4027H17.5769C17.3011 7.71633 16.8998 7.10889 16.4046 6.60097L16.997 4.00992H15.9939C15.0723 4.00992 14.2573 4.47322 13.7056 5.18705C13.4674 5.14929 13.2323 5.10811 12.9847 5.10811H8.97236C6.54616 5.10811 4.52433 6.99564 4.05727 9.50089H2.70311C2.23918 9.50089 1.87243 9.03759 1.96647 8.51252C2.03543 8.12128 2.37084 7.8536 2.73445 7.8536H2.7658C2.86924 7.8536 2.95388 7.76094 2.95388 7.64769V6.96132C2.95388 6.84807 2.86924 6.7554 2.7658 6.7554C1.87243 6.7554 1.07624 7.4555 0.963392 8.42329C0.825468 9.59698 1.65928 10.5991 2.70311 10.5991H3.95696C3.95696 12.3905 4.75315 13.9657 5.96312 14.9678V17.7374C5.96312 18.0394 6.18881 18.2865 6.46466 18.2865H8.47082C8.74667 18.2865 8.97236 18.0394 8.97236 17.7374V16.0901H12.9847V17.7374C12.9847 18.0394 13.2104 18.2865 13.4862 18.2865H15.4924C15.7682 18.2865 15.9939 18.0394 15.9939 17.7374V14.9678C16.3638 14.6624 16.6929 14.3021 16.9751 13.8937H18.5016C18.7775 13.8937 19.0032 13.6466 19.0032 13.3446V8.9518C19.0032 8.64979 18.7775 8.4027 18.5016 8.4027ZM14.4893 10.5991C14.2135 10.5991 13.9878 10.352 13.9878 10.05C13.9878 9.74799 14.2135 9.50089 14.4893 9.50089C14.7651 9.50089 14.9908 9.74799 14.9908 10.05C14.9908 10.352 14.7651 10.5991 14.4893 10.5991ZM8.97236 4.00992H12.9847C13.1539 4.00992 13.3201 4.02364 13.4831 4.03737C13.4831 4.02708 13.4862 4.02021 13.4862 4.00992C13.4862 2.19103 12.1383 0.715332 10.477 0.715332C8.81563 0.715332 7.46774 2.19103 7.46774 4.00992C7.46774 4.08199 7.48341 4.15062 7.48655 4.22269C7.96301 4.08885 8.45828 4.00992 8.97236 4.00992Z" fill="#262626"/>
</svg>
