<svg width="35" height="25" viewBox="0 0 35 25" fill="none" xmlns="http://www.w3.org/2000/svg">
<path d="M30.5982 4.10714H33.7196C34.1488 4.10714 34.5 4.47679 34.5 4.92857V6.57143C34.5 7.02321 34.1488 7.39286 33.7196 7.39286H30.5982V10.6786C30.5982 11.1304 30.2471 11.5 29.8179 11.5H28.2572C27.828 11.5 27.4768 11.1304 27.4768 10.6786V7.39286H24.3554C23.9262 7.39286 23.575 7.02321 23.575 6.57143V4.92857C23.575 4.47679 23.9262 4.10714 24.3554 4.10714H27.4768V0.821429C27.4768 0.369643 27.828 0 28.2572 0H29.8179C30.2471 0 30.5982 0.369643 30.5982 0.821429V4.10714Z" fill="black"/>
<path d="M0 22.7066C0 23.7756 0.858507 24.6428 1.91667 24.6428H21.0833C22.1415 24.6428 23 23.7756 23 22.7066V15.6071H0V22.7066ZM7.66667 19.9636C7.66667 19.6974 7.88229 19.4796 8.14583 19.4796H13.5764C13.8399 19.4796 14.0556 19.6974 14.0556 19.9636V21.5771C14.0556 21.8434 13.8399 22.0612 13.5764 22.0612H8.14583C7.88229 22.0612 7.66667 21.8434 7.66667 21.5771V19.9636ZM2.55556 19.9636C2.55556 19.6974 2.77118 19.4796 3.03472 19.4796H5.90972C6.17326 19.4796 6.38889 19.6974 6.38889 19.9636V21.5771C6.38889 21.8434 6.17326 22.0612 5.90972 22.0612H3.03472C2.77118 22.0612 2.55556 21.8434 2.55556 21.5771V19.9636ZM23 8.50763V10.4439H0V8.50763C0 7.43868 0.858507 6.57141 1.91667 6.57141H21.0833C22.1415 6.57141 23 7.43868 23 8.50763Z" fill="black"/>
</svg>
