<svg width="24" height="24" viewBox="0 0 24 24" fill="none" xmlns="http://www.w3.org/2000/svg">
<path d="M15.5744 10.3281L15.5508 10.3281C15.3567 10.3281 15.1992 10.4873 15.1992 10.6838C15.1992 10.8803 15.3567 11.0395 15.5508 11.0395L15.5711 11.0396H15.5728C15.7662 11.0396 15.9234 10.8814 15.9244 10.6855C15.9252 10.489 15.7686 10.329 15.5744 10.3281Z" fill="#262626"/>
<path d="M17.0018 10.7826C17.7666 11.1546 18.4136 11.734 18.8729 12.4581C19.3448 13.2021 19.5942 14.0648 19.5942 14.9527C19.5942 15.7087 19.4099 16.4589 19.0611 17.1221C18.9979 17.2423 18.8762 17.3108 18.7504 17.3108C18.6947 17.3108 18.6382 17.2974 18.5856 17.269C18.4142 17.1768 18.3492 16.9613 18.4404 16.7879C18.7352 16.2271 18.8911 15.5926 18.8911 14.9527C18.8911 13.4572 18.0299 12.0721 16.6971 11.4238C16.5221 11.3386 16.4485 11.1261 16.5326 10.9491C16.6167 10.772 16.8268 10.6974 17.0018 10.7826Z" fill="#262626"/>
<path d="M14.2485 13.8967C14.2485 14.2702 14.5955 14.5741 15.022 14.5741C15.8362 14.5741 16.4985 15.1971 16.4985 15.9629C16.4985 16.6148 16.0185 17.1629 15.3735 17.3117V17.4653C15.3735 17.6618 15.2161 17.8211 15.022 17.8211C14.8278 17.8211 14.6704 17.6618 14.6704 17.4653V17.3117C14.0254 17.1629 13.5454 16.6148 13.5454 15.9629C13.5454 15.7665 13.7028 15.6072 13.897 15.6072C14.0911 15.6072 14.2485 15.7665 14.2485 15.9629C14.2485 16.3364 14.5955 16.6403 15.022 16.6403C15.4485 16.6403 15.7954 16.3364 15.7954 15.9629C15.7954 15.5894 15.4485 15.2855 15.022 15.2855C14.2078 15.2855 13.5454 14.6625 13.5454 13.8967C13.5454 13.2448 14.0254 12.6967 14.6704 12.548V12.363C14.6704 12.1665 14.8278 12.0072 15.022 12.0072C15.2161 12.0072 15.3735 12.1665 15.3735 12.363V12.548C16.0185 12.6967 16.4985 13.2448 16.4985 13.8967C16.4985 14.0932 16.3411 14.2525 16.147 14.2525C15.9528 14.2525 15.7954 14.0932 15.7954 13.8967C15.7954 13.5232 15.4485 13.2193 15.022 13.2193C14.5955 13.2193 14.2485 13.5232 14.2485 13.8967Z" fill="#262626"/>
<path d="M11.1562 14.9527C11.1562 16.4481 12.0174 17.8332 13.3502 18.4816C13.5252 18.5667 13.5988 18.7792 13.5147 18.9563C13.4542 19.0837 13.3285 19.158 13.1976 19.158C13.1465 19.158 13.0947 19.1467 13.0455 19.1228C12.2807 18.7507 11.6337 18.1713 11.1745 17.4472C10.7026 16.7032 10.4531 15.8406 10.4531 14.9527C10.4531 14.1967 10.6375 13.4465 10.9863 12.7833C11.0774 12.6098 11.2904 12.544 11.4618 12.6363C11.6332 12.7286 11.6982 12.944 11.607 13.1174C11.3121 13.6782 11.1562 14.3128 11.1562 14.9527Z" fill="#262626"/>
<path d="M14.4961 18.8655L14.4757 18.8654C14.2807 18.8651 14.1234 19.023 14.1226 19.2195C14.1216 19.416 14.2784 19.576 14.4725 19.5769L14.4961 19.577C14.6902 19.577 14.8476 19.4177 14.8476 19.2212C14.8476 19.0248 14.6902 18.8655 14.4961 18.8655Z" fill="#262626"/>
<path fill-rule="evenodd" clip-rule="evenodd" d="M16.4636 8.83398C16.5246 8.92416 16.577 9.02138 16.6198 9.12454C19.1427 9.83298 21 12.1773 21 14.9526C21 18.2871 18.3189 21 15.0235 21C13.3029 21 11.7502 20.2603 10.6588 19.079H6.51562C5.62392 19.079 4.89843 18.3449 4.89843 17.4427C4.89843 16.9245 5.13799 16.4621 5.51068 16.162C5.13799 15.862 4.89843 15.3996 4.89843 14.8814C4.89843 14.3632 5.13799 13.9008 5.51068 13.6008C5.13799 13.3007 4.89843 12.8383 4.89843 12.3201C4.89843 11.8019 5.13799 11.3395 5.51068 11.0395C5.13799 10.7395 4.89843 10.2771 4.89843 9.75888C4.89843 8.8566 5.62392 8.12252 6.51562 8.12252H7.43249C7.25348 7.85921 7.14843 7.54065 7.14843 7.19762C7.14843 6.85459 7.25351 6.53603 7.43249 6.27272H4.61718C3.72548 6.27272 3 5.53864 3 4.63636C3 3.73409 3.72548 3 4.61718 3H13.2304C14.1222 3 14.8476 3.73409 14.8476 4.63636C14.8476 4.97939 14.7426 5.29795 14.5636 5.56126H17.3789C18.2706 5.56126 18.9961 6.29535 18.9961 7.19762C18.9961 8.0999 18.2706 8.83398 17.3789 8.83398H16.4636ZM18.2929 7.19762C18.2929 6.68764 17.8829 6.27272 17.3789 6.27272H8.76561C8.26158 6.27272 7.85155 6.68764 7.85155 7.19762C7.85155 7.70759 8.26158 8.12252 8.76561 8.12252H17.3789C17.8829 8.12252 18.2929 7.70759 18.2929 7.19762ZM3.70312 4.63636C3.70312 5.14634 4.11315 5.56126 4.61718 5.56126H13.2304C13.7345 5.56126 14.1445 5.14634 14.1445 4.63636C14.1445 4.12639 13.7345 3.71146 13.2304 3.71146H4.61718C4.11315 3.71146 3.70312 4.12639 3.70312 4.63636ZM15.1289 8.83398H6.51562C6.01162 8.83398 5.60156 9.2489 5.60156 9.75888C5.60156 10.2689 6.01162 10.6838 6.51562 10.6838H10.7942C11.8768 9.58564 13.373 8.90516 15.0235 8.90516C15.1933 8.90516 15.3614 8.91277 15.5277 8.9269C15.4061 8.86728 15.2705 8.83398 15.1289 8.83398ZM10.1935 11.3952H6.51562C6.01158 11.3952 5.60156 11.8102 5.60156 12.3201C5.60156 12.8301 6.01158 13.245 6.51562 13.245H9.28986C9.48582 12.5725 9.79439 11.9485 10.1935 11.3952ZM9.12843 13.9565H6.51562C6.01158 13.9565 5.60156 14.3714 5.60156 14.8814C5.60156 15.3914 6.01158 15.8063 6.51562 15.8063H9.10673C9.06761 15.5273 9.0469 15.2424 9.0469 14.9526C9.0469 14.6133 9.07509 14.2807 9.12843 13.9565ZM5.60156 17.4427C5.60156 17.9527 6.01158 18.3676 6.51562 18.3676H10.0938C9.71585 17.8107 9.42768 17.187 9.25028 16.5178H6.51562C6.01158 16.5178 5.60156 16.9326 5.60156 17.4427ZM9.75002 14.9526C9.75002 17.8948 12.1157 20.2885 15.0235 20.2885C17.9312 20.2885 20.2969 17.8948 20.2969 14.9526C20.2969 12.0103 17.9312 9.61662 15.0235 9.61662C12.1157 9.61662 9.75002 12.0103 9.75002 14.9526Z" fill="#262626"/>
</svg>
