<svg width="24" height="24" viewBox="0 0 24 24" fill="none" xmlns="http://www.w3.org/2000/svg">
<path d="M10.1041 12.46H7.83606V14.788H6.25206V12.46H3.98406V10.996H6.25206V8.668H7.83606V10.996H10.1041V12.46ZM12.624 14.104C13.392 13.464 14.004 12.932 14.46 12.508C14.916 12.076 15.296 11.628 15.6 11.164C15.904 10.7 16.056 10.244 16.056 9.796C16.056 9.388 15.96 9.068 15.768 8.836C15.576 8.604 15.28 8.488 14.88 8.488C14.48 8.488 14.172 8.624 13.956 8.896C13.74 9.16 13.628 9.524 13.62 9.988H11.988C12.02 9.028 12.304 8.3 12.84 7.804C13.384 7.308 14.072 7.06 14.904 7.06C15.816 7.06 16.516 7.304 17.004 7.792C17.492 8.272 17.736 8.908 17.736 9.7C17.736 10.324 17.568 10.92 17.232 11.488C16.896 12.056 16.512 12.552 16.08 12.976C15.648 13.392 15.084 13.896 14.388 14.488H17.928V15.88H12V14.632L12.624 14.104Z" fill="#B5B5B5"/>
<circle cx="12" cy="12" r="11.5" stroke="#B5B5B5"/>
</svg>
