<svg width="24" height="24" viewBox="0 0 24 24" fill="none" xmlns="http://www.w3.org/2000/svg">
<path d="M16.3994 17.9081C16.1786 17.9081 15.9994 17.7497 15.9994 17.528V17.488C15.9994 17.2672 16.1786 17.088 16.3994 17.088C16.6202 17.088 16.7994 17.2672 16.7994 17.488C16.7994 17.7089 16.6202 17.9081 16.3994 17.9081Z" fill="#262626"/>
<path d="M16.3996 20.8001H13.1996C12.9788 20.8001 12.7996 20.6209 12.7996 20.4001V19.1145C11.8164 19.2273 10.6132 19.2329 9.59956 19.1041V20.4001C9.59956 20.6209 9.42036 20.8001 9.19956 20.8001H5.99956C5.77876 20.8001 5.59956 20.6209 5.59956 20.4001V17.6641C4.24836 16.7497 3.59076 15.6809 3.34516 15.2001H1.99956C1.77876 15.2001 1.59956 15.0209 1.59956 14.8001V11.6001C1.59956 11.3793 1.77876 11.2001 1.99956 11.2001H3.32756C3.50276 10.8097 3.91156 10.0729 4.74116 9.33692L4.01636 6.91532C3.98036 6.79372 4.00276 6.66252 4.07876 6.56172C4.15396 6.46012 4.27316 6.40012 4.39956 6.40012C5.47796 6.40012 7.34676 6.97372 7.90356 8.01132C8.00836 8.20572 7.93556 8.44812 7.74036 8.55292C7.54436 8.65852 7.30356 8.58492 7.19876 8.38972C6.91556 7.86172 5.85876 7.39612 4.95156 7.24892L5.58276 9.35772C5.62916 9.51212 5.57796 9.68012 5.45236 9.78252C4.30276 10.7225 3.98516 11.7081 3.98196 11.7185C3.92996 11.8841 3.77476 12.0001 3.59956 12.0001H2.39956V14.4001H3.59956C3.76356 14.4001 3.91156 14.5017 3.97236 14.6545C3.97716 14.6681 4.53556 16.0425 6.21476 17.1105C6.32996 17.1841 6.39956 17.3113 6.39956 17.4481V20.0001H8.79956V18.6401C8.79956 18.5225 8.85156 18.4097 8.94196 18.3337C9.03236 18.2577 9.15236 18.2257 9.26756 18.2457C10.4588 18.4521 11.9964 18.4433 13.1356 18.2609C13.2516 18.2417 13.3692 18.2761 13.458 18.3513C13.5484 18.4273 13.5996 18.5385 13.5996 18.6561V20.0001H15.9996V17.5281C15.9996 17.3921 16.0684 17.2657 16.1828 17.1921C18.1836 15.9017 18.3996 13.9705 18.3996 13.2001C18.3996 12.4577 17.918 10.2505 15.7212 8.96572C15.5308 8.85372 15.4668 8.60892 15.578 8.41852C15.69 8.22732 15.9332 8.16332 16.1252 8.27532C18.6476 9.75052 19.1996 12.3305 19.1996 13.2001C19.1996 14.0777 18.9612 16.2401 16.7996 17.7417V20.4001C16.7996 20.6209 16.6204 20.8001 16.3996 20.8001Z" fill="#262626"/>
<path d="M14.8801 10.2719C14.8193 10.2719 14.7577 10.2583 14.6993 10.2287C13.8753 9.81192 12.8329 9.59992 11.5993 9.59992C10.3009 9.59992 9.15692 9.76552 8.19932 10.0919C7.98972 10.1639 7.76252 10.0511 7.69132 9.84232C7.62012 9.63272 7.73132 9.40552 7.94092 9.33432C8.98172 8.97993 10.2129 8.79993 11.5993 8.79993C12.9593 8.79993 14.1241 9.04073 15.0617 9.51512C15.2585 9.61512 15.3377 9.85592 15.2377 10.0527C15.1665 10.1919 15.0265 10.2719 14.8801 10.2719Z" fill="#262626"/>
<path d="M13.4797 9.78404C13.3557 9.78404 13.2325 9.72644 13.1549 9.61764C13.0261 9.43844 13.0669 9.18884 13.2461 9.05924C13.9685 8.53924 14.3997 7.69444 14.3997 6.80004C14.3997 5.25604 13.1437 4.00004 11.5997 4.00004C10.0557 4.00004 8.79967 5.25604 8.79967 6.80004C8.79967 7.68644 9.19967 8.49444 9.89567 9.01604C10.0725 9.14884 10.1085 9.39924 9.97647 9.57604C9.84367 9.75284 9.59327 9.78884 9.41647 9.65684C8.51647 8.98244 7.99967 7.94084 7.99967 6.80004C7.99967 4.81524 9.61487 3.20004 11.5997 3.20004C13.5845 3.20004 15.1997 4.81524 15.1997 6.80004C15.1997 7.95044 14.6437 9.03844 13.7133 9.70884C13.6421 9.75924 13.5605 9.78404 13.4797 9.78404Z" fill="#262626"/>
<path d="M5.59962 12.8C6.04145 12.8 6.39963 12.4418 6.39963 12C6.39963 11.5582 6.04145 11.2 5.59962 11.2C5.15779 11.2 4.79962 11.5582 4.79962 12C4.79962 12.4418 5.15779 12.8 5.59962 12.8Z" fill="#262626"/>
<path d="M18.7992 13.5999C18.5784 13.5999 18.3992 13.4207 18.3992 13.1999C18.3992 12.9791 18.5784 12.7999 18.7992 12.7999C19.0264 12.7999 19.3208 12.6959 19.6144 12.5335C19.3192 12.0703 19.1992 11.5319 19.1992 11.1999C19.1992 10.1383 19.6032 9.59995 20.3992 9.59995C21.5992 9.59995 21.5992 10.7207 21.5992 11.1999C21.5992 11.6831 21.3024 12.1703 20.8832 12.5775C21.1496 12.6479 21.4672 12.5999 21.8344 12.4351C22.036 12.3415 22.2728 12.4343 22.3632 12.6351C22.4544 12.8359 22.3648 13.0735 22.1632 13.1639C21.2256 13.5863 20.58 13.3847 20.2024 13.1407C20.1936 13.1351 20.1856 13.1295 20.1768 13.1239C19.6992 13.4167 19.1896 13.5999 18.7992 13.5999ZM20.3992 10.3999C20.212 10.3999 19.9992 10.3999 19.9992 11.1999C19.9992 11.3975 20.0808 11.7599 20.2656 12.0671C20.576 11.7839 20.7992 11.4655 20.7992 11.1999C20.7992 10.4311 20.6832 10.3999 20.3992 10.3999Z" fill="#262626"/>
</svg>
